<?xml version="1.0" encoding="iso-8859-1"?>
<!-- Generator: Adobe Illustrator 19.0.0, SVG Export Plug-In . SVG Version: 6.00 Build 0)  -->
<svg version="1.1" id="Capa_1" xmlns="http://www.w3.org/2000/svg" xmlns:xlink="http://www.w3.org/1999/xlink" x="0px" y="0px" 
	 viewBox="0 122 512 390" style="enable-background:new 0 0 512 512;" xml:space="preserve">
<g
   id="g6"
   transform="translate(0,61)">
	<g
   id="g4">
		<path
   d="M 467,61 H 45 C 20.218,61 0,81.196 0,106 v 300 c 0,24.72 20.128,45 45,45 h 422 c 24.72,0 45,-20.128 45,-45 V 106 C 512,81.28 491.872,61 467,61 Z M 460.786,91 256.954,294.833 51.359,91 Z M 30,399.788 V 112.069 l 144.479,143.24 z M 51.213,421 195.783,276.43 246.44,326.652 c 5.864,5.814 15.327,5.795 21.167,-0.046 L 317,277.213 460.787,421 Z M 482,399.787 338.213,256 482,112.212 Z"
   id="path2"
    />
	</g>
</g>

</svg>